<svg width="232" height="189" viewBox="0 0 232 189" fill="none" xmlns="http://www.w3.org/2000/svg">
<path d="M105.521 41.6062C105.391 41.4462 105.091 41.1062 104.481 40.5362C103.871 39.9462 103.141 39.2462 102.361 38.5062C100.801 37.0162 99.0505 35.3462 97.6605 34.0662C91.2305 28.1362 84.8405 22.1462 78.9605 15.6562C78.0405 14.6362 76.3605 13.0462 77.9405 11.4262C79.5905 9.73617 81.6605 9.79617 83.3305 11.4962C87.3905 15.5862 91.2405 19.9462 95.7005 23.5662C98.9605 26.2162 102.071 29.0262 105.131 31.8762L109.751 36.2262C110.201 36.6862 110.591 37.0462 111.221 37.8962C111.771 38.6562 112.201 39.4962 112.411 40.3962C112.861 42.1762 112.431 44.1262 111.281 45.5762C110.781 46.2362 110.121 46.7862 109.421 47.2562C108.641 47.7662 108.161 47.9662 107.581 48.2162C107.021 48.4562 106.461 48.6362 105.911 48.7862C105.641 48.8662 105.361 48.9362 105.091 48.9962L104.381 49.1562C102.491 49.5862 100.581 49.9462 98.6705 50.2562C94.8405 50.8762 90.9805 51.2862 87.1105 51.5362C85.2805 51.6562 83.4805 51.7462 81.6305 51.8062C80.6605 51.8262 79.5805 51.8162 78.3805 51.6262C77.1905 51.4362 75.7905 51.0162 74.4705 50.0662C73.8105 49.6062 73.2405 48.9862 72.7505 48.3362C72.2805 47.6562 71.8905 46.8962 71.6605 46.1362C71.1805 44.5962 71.2105 43.1262 71.3905 41.8762C71.7905 39.3762 72.7405 37.4362 73.7705 35.6762C77.0305 30.2562 81.1805 25.4662 85.3905 20.8362C86.3905 19.7562 87.2405 18.1362 88.3805 16.9762C89.3005 16.0062 90.8805 14.4262 91.9705 13.6262C92.4305 13.2762 92.9405 12.9562 93.2905 12.5062C94.9005 10.4562 95.9605 10.6162 97.0705 13.0962C97.3205 13.6362 97.9805 14.0462 97.8005 14.7362C97.7905 14.7662 97.7805 14.8262 97.7805 14.8562C97.5305 17.2162 95.7305 17.9662 94.4605 19.3262C91.3505 22.6362 88.4505 26.1262 85.7605 29.7762C84.4105 31.5962 83.1305 33.4662 81.9005 35.3662C81.2905 36.3162 80.6805 37.2762 80.1105 38.2562C79.4905 39.2662 79.0205 40.0862 78.6505 40.9762C78.1905 42.0362 77.9205 43.1062 77.9705 43.7962C77.9905 44.1362 78.0505 44.3562 78.1405 44.5062C78.2305 44.6762 78.3605 44.8062 78.5505 44.9262C78.9505 45.1862 79.9605 45.3962 81.1705 45.3862C81.7705 45.3862 82.4905 45.3562 83.1805 45.3262C83.8705 45.2862 84.5605 45.2462 85.2505 45.1862C86.7605 45.0562 88.2405 44.6362 89.7805 44.7162H89.7505C91.3405 44.5062 92.9005 44.1962 94.4805 43.9962C97.4705 43.6262 100.491 43.0362 103.461 42.3362C104.101 42.1862 104.621 42.0162 105.081 41.8262C105.281 41.7462 105.591 41.5762 105.521 41.6062C105.531 41.6162 105.581 41.6162 105.611 41.5662C105.611 41.5562 105.521 41.6062 105.521 41.6062Z" fill="black"/>
<path d="M156.001 89.3171C155.871 89.1571 155.571 88.8171 154.961 88.2471C154.351 87.6571 153.621 86.9571 152.841 86.2171C151.281 84.7271 149.531 83.0571 148.141 81.7771C141.711 75.8471 135.321 69.8571 129.441 63.3671C128.521 62.3571 126.841 60.7571 128.421 59.1371C130.071 57.4471 132.141 57.5071 133.811 59.2071C137.871 63.2971 141.721 67.6571 146.181 71.2771C149.441 73.9271 152.551 76.7371 155.611 79.5871L160.231 83.9371C160.681 84.3971 161.071 84.7571 161.701 85.6071C162.251 86.3671 162.681 87.2071 162.891 88.1071C163.341 89.8871 162.911 91.8371 161.761 93.2871C161.261 93.9471 160.601 94.4971 159.901 94.9671C159.121 95.4771 158.651 95.6771 158.061 95.9271C157.501 96.1671 156.941 96.3471 156.391 96.4971C156.121 96.5771 155.841 96.6471 155.571 96.7071L154.861 96.8671C152.971 97.2971 151.061 97.6571 149.151 97.9671C145.321 98.5871 141.461 98.9971 137.591 99.2471C135.761 99.3671 133.961 99.4571 132.111 99.5171C131.141 99.5371 130.061 99.5271 128.861 99.3371C127.671 99.1471 126.271 98.7271 124.951 97.7771C124.291 97.3171 123.721 96.6971 123.231 96.0471C122.761 95.3671 122.371 94.6071 122.141 93.8471C121.661 92.3071 121.691 90.8371 121.871 89.5871C122.271 87.0871 123.221 85.1471 124.251 83.3871C127.511 77.9671 131.661 73.1771 135.871 68.5471C136.871 67.4671 137.721 65.8471 138.861 64.6871C139.781 63.7171 141.361 62.1371 142.451 61.3371C142.911 60.9971 143.421 60.6671 143.771 60.2171C145.381 58.1671 146.441 58.3271 147.551 60.8071C147.801 61.3471 148.461 61.7571 148.281 62.4471C148.271 62.4771 148.261 62.5371 148.261 62.5671C148.011 64.9271 146.211 65.6771 144.941 67.0371C141.831 70.3471 138.931 73.8371 136.241 77.4871C134.891 79.3071 133.611 81.1771 132.381 83.0771C131.771 84.0271 131.161 84.9871 130.591 85.9671C129.971 86.9771 129.501 87.7971 129.131 88.6871C128.671 89.7471 128.401 90.8171 128.451 91.5071C128.471 91.8471 128.531 92.0671 128.621 92.2171C128.711 92.3871 128.841 92.5171 129.031 92.6371C129.431 92.8971 130.441 93.1071 131.651 93.0971C132.251 93.0971 132.971 93.0671 133.661 93.0371C134.351 92.9971 135.041 92.9571 135.731 92.8971C137.241 92.7671 138.721 92.3471 140.261 92.4271H140.231C141.821 92.2171 143.381 91.9071 144.961 91.7071C147.951 91.3371 150.971 90.7471 153.941 90.0471C154.581 89.8971 155.101 89.7271 155.561 89.5371C155.751 89.4571 156.061 89.2871 156.001 89.3171C156.011 89.3271 156.061 89.3271 156.091 89.2771C156.091 89.2671 156.001 89.3171 156.001 89.3171Z" fill="black"/>
<path d="M173.321 31.4167C173.191 31.2567 172.891 30.9167 172.281 30.3467C171.671 29.7567 170.941 29.0567 170.161 28.3167C168.601 26.8267 166.851 25.1567 165.461 23.8767C159.031 17.9467 152.641 11.9567 146.761 5.46672C145.841 4.44672 144.161 2.85672 145.741 1.23672C147.391 -0.453283 149.461 -0.393283 151.131 1.30672C155.191 5.39672 159.041 9.75672 163.501 13.3767C166.761 16.0267 169.871 18.8367 172.931 21.6867L177.551 26.0367C178.001 26.4967 178.391 26.8567 179.021 27.7067C179.571 28.4667 180.001 29.3067 180.211 30.2067C180.661 31.9867 180.231 33.9367 179.081 35.3867C178.581 36.0467 177.921 36.5967 177.221 37.0667C176.441 37.5767 175.971 37.7767 175.381 38.0267C174.821 38.2667 174.261 38.4467 173.711 38.5967C173.441 38.6767 173.161 38.7467 172.891 38.8067L172.181 38.9667C170.291 39.3967 168.381 39.7567 166.471 40.0667C162.641 40.6867 158.781 41.0967 154.911 41.3467C153.081 41.4667 151.281 41.5567 149.431 41.6167C148.461 41.6367 147.381 41.6267 146.181 41.4367C144.991 41.2467 143.591 40.8267 142.271 39.8767C141.611 39.4167 141.041 38.7967 140.551 38.1467C140.081 37.4667 139.691 36.7067 139.461 35.9467C138.981 34.4067 139.011 32.9367 139.191 31.6867C139.591 29.1867 140.541 27.2467 141.571 25.4867C144.831 20.0667 148.981 15.2767 153.191 10.6467C154.191 9.56672 155.041 7.94672 156.181 6.78672C157.101 5.81672 158.681 4.23672 159.771 3.43672C160.231 3.08672 160.741 2.76672 161.091 2.31672C162.701 0.266717 163.761 0.426717 164.871 2.90672C165.121 3.44672 165.781 3.85672 165.601 4.54672C165.591 4.57672 165.581 4.63672 165.581 4.66672C165.331 7.02672 163.531 7.77672 162.261 9.12672C159.151 12.4367 156.251 15.9267 153.561 19.5767C152.211 21.3967 150.931 23.2667 149.701 25.1667C149.091 26.1167 148.481 27.0767 147.911 28.0567C147.291 29.0667 146.821 29.8867 146.451 30.7767C145.991 31.8367 145.721 32.9067 145.771 33.5967C145.791 33.9367 145.851 34.1567 145.941 34.3067C146.031 34.4767 146.161 34.6067 146.351 34.7267C146.751 34.9867 147.761 35.1967 148.971 35.1867C149.571 35.1867 150.291 35.1567 150.981 35.1267C151.671 35.0867 152.361 35.0467 153.051 34.9867C154.561 34.8567 156.041 34.4367 157.581 34.5167H157.551C159.141 34.3067 160.701 33.9967 162.281 33.7967C165.271 33.4267 168.291 32.8367 171.261 32.1367C171.901 31.9867 172.421 31.8167 172.881 31.6267C173.071 31.5467 173.381 31.3767 173.321 31.4167C173.331 31.4267 173.381 31.4267 173.411 31.3767C173.411 31.3567 173.321 31.4067 173.321 31.4167Z" fill="black"/>
<path d="M99.2714 146.757C98.9014 147.997 97.5114 152.357 96.7114 155.177C94.8614 161.707 92.9514 168.217 90.3514 174.517C89.9414 175.497 89.4314 177.227 87.2714 176.547C85.0214 175.847 84.0414 174.307 84.6514 172.557C86.1114 168.327 87.9014 164.177 88.7614 159.797C89.3914 156.597 90.2414 153.457 91.1414 150.337L92.5214 145.667L92.8614 144.507C92.9614 144.157 93.0514 143.807 93.1314 143.467C93.2914 142.777 93.4014 142.107 93.4514 141.477C93.5514 140.347 93.4014 139.357 93.1514 138.957C92.9414 138.567 92.5714 138.327 92.0814 138.267C91.5414 138.187 90.4314 138.447 89.2114 138.917C87.9614 139.377 86.5914 140.017 84.9414 140.547C83.4114 141.057 81.3614 141.377 79.4614 141.137C77.5314 140.917 75.7414 140.177 74.2114 139.197C71.1314 137.217 69.0214 134.307 67.8614 131.057C67.3614 129.647 67.0914 128.157 67.0114 126.637C66.9814 125.057 67.1414 123.657 67.4514 122.287C68.0614 119.547 69.1614 117.067 70.3914 114.807C70.9514 113.737 71.2914 112.277 72.0014 111.177C72.5714 110.257 73.5614 108.797 74.3014 108.067C74.6214 107.747 74.9714 107.427 75.1514 107.027C75.9714 105.187 76.9414 105.257 78.6714 107.277C79.0514 107.727 79.7514 108.017 79.8014 108.627C79.8014 108.657 79.8114 108.707 79.8114 108.727C80.2714 110.787 78.8714 111.527 78.1214 112.737C76.3114 115.687 74.7614 118.677 74.0314 121.707C73.8414 122.467 73.7314 123.217 73.6414 123.977L73.5714 125.107L73.6114 126.127C73.7414 127.507 74.1714 128.907 74.8414 130.167C75.6514 131.717 76.8014 133.107 78.1414 133.937C78.4614 134.187 78.8214 134.287 79.1514 134.467C79.5014 134.557 79.8414 134.717 80.1814 134.737C80.8714 134.887 81.5214 134.777 82.2114 134.607C83.0114 134.367 83.8614 133.707 85.0314 133.457L85.0014 133.467C86.1214 132.947 87.3414 132.257 88.9814 131.837C89.7314 131.637 90.6314 131.487 91.6014 131.447C92.0914 131.437 92.6314 131.467 93.1614 131.527C93.7114 131.627 94.2614 131.717 94.7914 131.947C95.8914 132.327 96.8114 132.947 97.6614 133.717C98.5014 134.527 99.1314 135.517 99.5514 136.497C100.351 138.497 100.371 140.287 100.251 141.827C100.101 143.367 99.7814 144.737 99.3814 145.997C99.3214 146.187 99.3414 146.507 99.2714 146.757Z" fill="black"/>
<path d="M224.251 86.5935C224.121 86.4335 223.821 86.0935 223.211 85.5235C222.601 84.9335 221.871 84.2335 221.091 83.4935C219.531 82.0035 217.781 80.3335 216.391 79.0535C209.961 73.1235 203.571 67.1335 197.691 60.6435C196.771 59.6235 195.091 58.0335 196.671 56.4135C198.321 54.7235 200.391 54.7835 202.061 56.4835C206.121 60.5735 209.971 64.9335 214.431 68.5535C217.691 71.2035 220.801 74.0135 223.861 76.8635L228.481 81.2135C228.931 81.6735 229.321 82.0335 229.951 82.8835C230.501 83.6435 230.931 84.4835 231.141 85.3835C231.591 87.1635 231.161 89.1135 230.011 90.5635C229.511 91.2235 228.851 91.7735 228.151 92.2435C227.371 92.7535 226.891 92.9535 226.311 93.2035C225.751 93.4435 225.191 93.6235 224.641 93.7735C224.371 93.8535 224.091 93.9235 223.821 93.9835L223.111 94.1435C221.221 94.5735 219.311 94.9335 217.401 95.2435C213.571 95.8635 209.711 96.2735 205.841 96.5235C204.011 96.6435 202.211 96.7335 200.361 96.7935C199.391 96.8135 198.311 96.8035 197.111 96.6135C195.921 96.4235 194.521 96.0035 193.201 95.0535C192.541 94.5935 191.971 93.9735 191.481 93.3235C191.011 92.6435 190.621 91.8835 190.391 91.1235C189.911 89.5835 189.941 88.1135 190.121 86.8635C190.521 84.3635 191.471 82.4235 192.501 80.6635C195.761 75.2435 199.911 70.4535 204.121 65.8235C205.121 64.7435 205.971 63.1235 207.111 61.9635C208.031 60.9935 209.611 59.4135 210.701 58.6135C211.161 58.2635 211.671 57.9435 212.021 57.4935C213.631 55.4435 214.691 55.6035 215.801 58.0835C216.051 58.6235 216.711 59.0335 216.531 59.7235C216.521 59.7535 216.511 59.8135 216.511 59.8435C216.261 62.2035 214.461 62.9535 213.191 64.3135C210.081 67.6235 207.181 71.1135 204.491 74.7635C203.141 76.5835 201.861 78.4535 200.631 80.3535C200.021 81.3035 199.411 82.2635 198.841 83.2435C198.221 84.2535 197.751 85.0735 197.381 85.9635C196.921 87.0235 196.651 88.0935 196.701 88.7835C196.721 89.1235 196.781 89.3435 196.871 89.4935C196.961 89.6635 197.091 89.7935 197.281 89.9135C197.681 90.1735 198.691 90.3835 199.901 90.3735C200.501 90.3735 201.221 90.3435 201.911 90.3135C202.601 90.2735 203.291 90.2335 203.981 90.1735C205.491 90.0435 206.971 89.6235 208.511 89.7035H208.481C210.071 89.4935 211.631 89.1835 213.211 88.9835C216.201 88.6135 219.221 88.0235 222.191 87.3235C222.831 87.1735 223.351 87.0035 223.811 86.8135C224.011 86.7335 224.321 86.5635 224.251 86.5935C224.261 86.6035 224.311 86.6035 224.341 86.5535C224.341 86.5435 224.251 86.5935 224.251 86.5935Z" fill="black"/>
<path d="M34.251 107.403C34.121 107.243 33.821 106.903 33.211 106.333C32.601 105.743 31.871 105.043 31.091 104.303C29.531 102.813 27.781 101.143 26.391 99.863C19.961 93.933 13.571 87.943 7.69097 81.453C6.77097 80.443 5.09097 78.843 6.67097 77.223C8.32097 75.533 10.391 75.593 12.061 77.293C16.121 81.383 19.971 85.743 24.431 89.363C27.691 92.013 30.801 94.823 33.861 97.673L38.481 102.023C38.931 102.483 39.321 102.843 39.951 103.693C40.501 104.453 40.931 105.293 41.141 106.193C41.591 107.973 41.161 109.923 40.011 111.373C39.511 112.033 38.851 112.583 38.151 113.053C37.371 113.563 36.901 113.763 36.311 114.013C35.751 114.253 35.191 114.433 34.641 114.583C34.371 114.663 34.091 114.733 33.821 114.793L33.111 114.953C31.221 115.383 29.311 115.743 27.401 116.053C23.571 116.673 19.711 117.083 15.841 117.333C14.011 117.453 12.211 117.543 10.361 117.603C9.39098 117.623 8.31098 117.613 7.11098 117.423C5.92098 117.233 4.52098 116.813 3.20098 115.863C2.54098 115.403 1.97098 114.783 1.48098 114.133C1.01098 113.453 0.620975 112.693 0.390975 111.933C-0.089025 110.393 -0.0590255 108.923 0.120975 107.673C0.520975 105.173 1.47098 103.233 2.50098 101.473C5.76098 96.053 9.91098 91.263 14.121 86.633C15.121 85.553 15.971 83.933 17.111 82.773C18.031 81.803 19.611 80.223 20.701 79.423C21.161 79.083 21.671 78.753 22.021 78.303C23.631 76.253 24.691 76.413 25.801 78.893C26.051 79.433 26.711 79.843 26.531 80.533C26.521 80.563 26.511 80.623 26.511 80.653C26.261 83.013 24.461 83.763 23.191 85.123C20.081 88.433 17.181 91.923 14.491 95.573C13.141 97.393 11.861 99.263 10.631 101.163C10.021 102.113 9.41098 103.073 8.84098 104.053C8.22098 105.063 7.75098 105.883 7.38098 106.773C6.92098 107.833 6.65098 108.903 6.70098 109.593C6.72098 109.933 6.78097 110.153 6.87097 110.303C6.96097 110.473 7.09097 110.603 7.28097 110.723C7.68097 110.983 8.69098 111.193 9.90098 111.183C10.501 111.183 11.221 111.153 11.911 111.123C12.601 111.083 13.291 111.043 13.981 110.983C15.491 110.853 16.971 110.433 18.511 110.513H18.481C20.071 110.303 21.631 109.993 23.211 109.793C26.201 109.423 29.221 108.833 32.191 108.133C32.831 107.983 33.351 107.813 33.811 107.623C34.001 107.543 34.311 107.373 34.251 107.403C34.261 107.413 34.311 107.413 34.341 107.363C34.341 107.353 34.251 107.403 34.251 107.403Z" fill="black"/>
<path d="M168.251 178.403C168.121 178.243 167.821 177.903 167.211 177.333C166.601 176.743 165.871 176.043 165.091 175.303C163.531 173.813 161.781 172.143 160.391 170.863C153.961 164.933 147.571 158.943 141.691 152.453C140.771 151.433 139.091 149.843 140.671 148.223C142.321 146.533 144.391 146.593 146.061 148.293C150.121 152.383 153.971 156.743 158.431 160.363C161.691 163.013 164.801 165.823 167.861 168.673L172.481 173.023C172.931 173.483 173.321 173.843 173.951 174.693C174.501 175.453 174.931 176.293 175.141 177.193C175.591 178.973 175.161 180.923 174.011 182.373C173.511 183.033 172.851 183.583 172.151 184.053C171.371 184.563 170.901 184.763 170.311 185.013C169.751 185.253 169.191 185.433 168.641 185.583C168.371 185.663 168.091 185.733 167.821 185.793L167.111 185.953C165.221 186.383 163.311 186.743 161.401 187.053C157.571 187.673 153.711 188.083 149.841 188.333C148.011 188.453 146.211 188.543 144.361 188.603C143.391 188.623 142.311 188.613 141.111 188.423C139.921 188.233 138.521 187.813 137.201 186.863C136.541 186.403 135.971 185.783 135.481 185.133C135.011 184.453 134.621 183.693 134.391 182.933C133.911 181.393 133.941 179.923 134.121 178.673C134.521 176.173 135.471 174.233 136.501 172.473C139.761 167.053 143.911 162.263 148.121 157.633C149.121 156.553 149.971 154.933 151.111 153.773C152.031 152.803 153.611 151.223 154.701 150.423C155.161 150.073 155.671 149.753 156.021 149.303C157.631 147.253 158.691 147.413 159.801 149.893C160.051 150.433 160.711 150.843 160.531 151.533C160.521 151.563 160.511 151.623 160.511 151.653C160.261 154.013 158.461 154.763 157.191 156.113C154.081 159.423 151.181 162.913 148.491 166.563C147.141 168.383 145.861 170.253 144.631 172.153C144.021 173.103 143.411 174.063 142.841 175.043C142.221 176.053 141.751 176.873 141.381 177.763C140.921 178.823 140.651 179.893 140.701 180.583C140.721 180.923 140.781 181.143 140.871 181.293C140.961 181.463 141.091 181.593 141.281 181.713C141.681 181.973 142.691 182.183 143.901 182.173C144.501 182.173 145.221 182.143 145.911 182.113C146.601 182.073 147.291 182.033 147.981 181.973C149.491 181.843 150.971 181.423 152.511 181.503H152.481C154.071 181.293 155.631 180.983 157.211 180.783C160.201 180.413 163.221 179.823 166.191 179.123C166.831 178.973 167.351 178.803 167.811 178.613C168.001 178.533 168.311 178.363 168.251 178.403C168.261 178.413 168.311 178.413 168.341 178.363C168.341 178.343 168.251 178.393 168.251 178.403Z" fill="black"/>
</svg>
